<?xml version="1.0" encoding="utf-8"?>
<!-- Generated by IcoMoon.io -->
<svg version="1.1" xmlns="http://www.w3.org/2000/svg" xmlns:xlink="http://www.w3.org/1999/xlink" width="922" height="368" viewBox="0 0 922 368">
<svg id="zion-mask-bottom-mask_01" width="256" height="32" viewBox="0 0 256 32" x="0" y="0">
<path d="M0 0l256 32h-256v-32z"></path>
</svg>
<svg id="zion-mask-bottom-mask_02" width="256" height="32" viewBox="0 0 256 32" x="288" y="0">
<path fill="#444" opacity="0.6" d="M0 0l256 32h-256v-32z"></path>
<path fill="#444" d="M0 8.889l256 23.111h-256v-23.111z"></path>
</svg>
<svg id="zion-mask-bottom-mask_05" width="256" height="32" viewBox="0 0 256 32" x="0" y="48">
<path d="M256 0v32.178h-256v-32.178l128 31.822 128-31.822z"></path>
</svg>
<svg id="zion-mask-bottom-mask_06" width="256" height="32" viewBox="0 0 256 32" x="288" y="48">
<path d="M128 31.822c46.258 0 89.826-11.511 128-31.822v32h-256v-32c38.174 20.311 81.742 31.822 128 31.822z"></path>
</svg>
<svg id="zion-mask-bottom-mask_07" width="922" height="32" viewBox="0 0 922 32" x="0" y="96">
<path d="M492.8 32h-64l32-32 32 32z"></path>
</svg>
<svg id="zion-mask-bottom-mask_14" width="922" height="32" viewBox="0 0 922 32" x="0" y="144">
<path d="M806.4 6.496c-57.6-6.675-57.6-6.675-115.2-1.536s-57.6 5.139-115.2 0-57.6-5.139-115.2 1.536-57.6 6.675-115.2 2.829-57.6-3.846-115.2 3.674-57.6 7.52-115.2 3.942c-57.6-3.584-57.6-3.584-115.2 3.584v12.755h921.6v-26.778c-57.6 6.669-57.6 6.669-115.2-0.006z"></path>
</svg>
<svg id="zion-mask-top-mask_01" width="256" height="32" viewBox="0 0 256 32" x="0" y="192">
<path d="M0 0l256 32h-256v-32z"></path>
</svg>
<svg id="zion-mask-top-mask_02" width="256" height="32" viewBox="0 0 256 32" x="288" y="192">
<path fill="#444" opacity="0.6" d="M0 0l256 32h-256v-32z"></path>
<path fill="#444" d="M0 8.889l256 23.111h-256v-23.111z"></path>
</svg>
<svg id="zion-mask-top-mask_05" width="256" height="32" viewBox="0 0 256 32" x="576" y="192">
<path d="M256 0v32.178h-256v-32.178l128 31.822 128-31.822z"></path>
</svg>
<svg id="zion-mask-top-mask_06" width="256" height="32" viewBox="0 0 256 32" x="0" y="240">
<path d="M128 31.822c46.258 0 89.826-11.511 128-31.822v32h-256v-32c38.174 20.311 81.742 31.822 128 31.822z"></path>
</svg>
<svg id="zion-mask-top-mask_07" width="922" height="32" viewBox="0 0 922 32" x="0" y="288">
<path d="M492.8 32h-64l32-32 32 32z"></path>
</svg>
<svg id="zion-mask-top-mask_14" width="922" height="32" viewBox="0 0 922 32" x="0" y="336">
<path d="M806.4 6.496c-57.6-6.675-57.6-6.675-115.2-1.536s-57.6 5.139-115.2 0-57.6-5.139-115.2 1.536-57.6 6.675-115.2 2.829-57.6-3.846-115.2 3.674-57.6 7.52-115.2 3.942c-57.6-3.584-57.6-3.584-115.2 3.584v12.755h921.6v-26.778c-57.6 6.669-57.6 6.669-115.2-0.006z"></path>
</svg>
</svg>
