<svg width="730" height="400" viewBox="0 0 730 400" fill="none" xmlns="http://www.w3.org/2000/svg">
<rect width="730" height="400" fill="#222225"/>
<path d="M418.5 187.2C415.6 182.6 412.2 178.1 408.3 173.8L428 159L422 151L302 241L308 249L331.7 231.2C341.1 237.8 351.6 241.5 363 241.5C379.9 241.5 394.7 233.3 407.3 219.8C411.6 215.2 415.4 210.2 418.6 205.3C420.5 202.3 421.8 199.9 422.5 198.5C423.2 197.1 423.2 195.4 422.5 194C421.8 192.6 420.4 190.2 418.5 187.2ZM371.7 201.2C370.3 203.6 368 205.4 365.3 206L371.7 201.2ZM410.1 199.8C407.2 204.3 403.8 208.8 399.9 212.9C389.1 224.6 376.7 231.4 363 231.4C355 231.4 347.4 229 340.3 224.7L354.2 214.2C356.8 215.5 359.8 216.2 363 216.2C374 216.2 383 207.2 383 196.1C383 195 382.9 193.9 382.7 192.8L400.2 179.7C404 183.8 407.3 188.2 410.1 192.6C410.9 193.9 411.6 195.1 412.3 196.2C411.7 197.3 410.9 198.5 410.1 199.8ZM303.5 198.5C302.8 197.1 302.8 195.4 303.5 194C304.2 192.6 305.5 190.2 307.4 187.2C310.6 182.2 314.3 177.3 318.7 172.7C331.3 159.2 346.1 151 363 151C373.8 151 383.8 154.4 392.9 160.3L384.2 166.8C377.5 163.1 370.5 161 363 161C349.3 161 336.9 167.9 326 179.5C322.1 183.7 318.7 188.1 315.8 192.6C315 193.9 314.3 195.1 313.6 196.2C314.2 197.3 315 198.5 315.8 199.8C318.3 203.8 321.3 207.7 324.6 211.5L316.6 217.5C313.1 213.5 310.1 209.4 307.4 205.3C305.6 202.3 304.2 199.9 303.5 198.5ZM363 176.1C365.5 176.1 367.9 176.6 370.1 177.4L343.1 197.7C343.1 197.2 343 196.7 343 196.2C343 185.1 352 176.1 363 176.1Z" fill="#2F2F32"/>
</svg>
