<svg xmlns="http://www.w3.org/2000/svg" width="42" height="42" viewBox="0 0 100 100">
<path d="M24 14C24 16.2 22.2 18 20 18C17.8 18 16 16.2 16 14C16 11.8 17.8 10 20 10C22.2 10 24 11.8 24 14ZM32 10C29.8 10 28 11.8 28 14C28 16.2 29.8 18 32 18C34.2 18 36 16.2 36 14C36 11.8 34.2 10 32 10ZM44 10C41.8 10 40 11.8 40 14C40 16.2 41.8 18 44 18C46.2 18 48 16.2 48 14C48 11.8 46.2 10 44 10ZM100 15V85C100 93.3 93.3 100 85 100H77C75.3 100 74 98.7 74 97C74 95.3 75.3 94 77 94H85C90 94 94 90 94 85V28H6V85C6 90 10 94 15 94H47C48.7 94 50 95.3 50 97C50 98.7 48.7 100 47 100H15C6.7 100 0 93.3 0 85V15C0 6.7 6.7 0 15 0H85C93.3 0 100 6.7 100 15ZM94 15C94 10 90 6 85 6H15C10 6 6 10 6 15V22H94V15ZM39 43.9L22 60.9L39 77.9L43.2 73.7L30.5 60.8L43.2 48.1L39 43.9ZM61.2 77.9L78.2 60.9L61.2 43.9L57 48.2L69.7 61L57 73.7L61.2 77.9ZM65 94H59C57.3 94 56 95.3 56 97C56 98.7 57.3 100 59 100H65C66.7 100 68 98.7 68 97C68 95.3 66.7 94 65 94Z" fill="black"/>
</svg>
